{
	"asset":{
		"generator":"Khronos glTF Blender I/O v4.2.57",
		"version":"2.0"
	},
	"extensionsUsed":[
		"KHR_materials_specular"
	],
	"scene":0,
	"scenes":[
		{
			"name":"Scene",
			"nodes":[
				0
			]
		}
	],
	"nodes":[
		{
			"mesh":0,
			"name":"Object_0",
			"scale":[
				0.00435180077329278,
				0.0043518017046153545,
				0.0043518017046153545
			],
			"translation":[
				-1.0924396514892578,
				1.5323234796524048,
				0.7142874002456665
			]
		}
	],
	"materials":[
		{
			"doubleSided":true,
			"extensions":{
				"KHR_materials_specular":{
					"specularColorTexture":{
						"index":0
					}
				}
			},
			"name":"material",
			"normalTexture":{
				"index":1
			},
			"pbrMetallicRoughness":{
				"baseColorTexture":{
					"index":2
				},
				"metallicFactor":0,
				"roughnessFactor":0.5
			}
		}
	],
	"meshes":[
		{
			"name":"Object_0",
			"primitives":[
				{
					"attributes":{
						"POSITION":0,
						"NORMAL":1,
						"TEXCOORD_0":2
					},
					"indices":3,
					"material":0
				}
			]
		}
	],
	"textures":[
		{
			"sampler":0,
			"source":0
		},
		{
			"sampler":0,
			"source":1
		},
		{
			"sampler":0,
			"source":2
		}
	],
	"images":[
		{
			"mimeType":"image/jpeg",
			"name":"material_specularGlossiness_spec",
			"uri":"material_specularGlossiness_spec.jpg"
		},
		{
			"mimeType":"image/jpeg",
			"name":"material_normal",
			"uri":"material_normal.jpg"
		},
		{
			"mimeType":"image/jpeg",
			"name":"material_diffuse",
			"uri":"material_diffuse.jpg"
		}
	],
	"accessors":[
		{
			"bufferView":0,
			"componentType":5126,
			"count":6875,
			"max":[
				69.10060119628906,
				70.71710205078125,
				36.77130126953125
			],
			"min":[
				-68.72660064697266,
				0,
				-39.177101135253906
			],
			"type":"VEC3"
		},
		{
			"bufferView":1,
			"componentType":5126,
			"count":6875,
			"type":"VEC3"
		},
		{
			"bufferView":2,
			"componentType":5126,
			"count":6875,
			"type":"VEC2"
		},
		{
			"bufferView":3,
			"componentType":5123,
			"count":30108,
			"type":"SCALAR"
		}
	],
	"bufferViews":[
		{
			"buffer":0,
			"byteLength":82500,
			"byteOffset":0,
			"target":34962
		},
		{
			"buffer":0,
			"byteLength":82500,
			"byteOffset":82500,
			"target":34962
		},
		{
			"buffer":0,
			"byteLength":55000,
			"byteOffset":165000,
			"target":34962
		},
		{
			"buffer":0,
			"byteLength":60216,
			"byteOffset":220000,
			"target":34963
		}
	],
	"samplers":[
		{
			"magFilter":9729,
			"minFilter":9987
		}
	],
	"buffers":[
		{
			"byteLength":280216,
			"uri":"BED_23-10.bin"
		}
	]
}
