{
	"asset":{
		"generator":"Khronos glTF Blender I/O v4.2.57",
		"version":"2.0"
	},
	"scene":0,
	"scenes":[
		{
			"name":"Scene",
			"nodes":[
				0,
				1
			]
		}
	],
	"nodes":[
		{
			"mesh":0,
			"name":"WoodenBucket_WoodenBucket_0",
			"scale":[
				0.020127292722463608,
				0.020127294585108757,
				0.020127294585108757
			],
			"translation":[
				0.6777251958847046,
				1.5294322967529297,
				0.7555927038192749
			]
		},
		{
			"mesh":1,
			"name":"WoodenBucket_WoodenBucket_0.001",
			"scale":[
				0.020127292722463608,
				0.020127294585108757,
				0.020127294585108757
			],
			"translation":[
				1.4576245546340942,
				1.5294322967529297,
				0.7555927038192749
			]
		}
	],
	"materials":[
		{
			"doubleSided":true,
			"name":"WoodenBucket",
			"normalTexture":{
				"index":0
			},
			"pbrMetallicRoughness":{
				"baseColorTexture":{
					"index":1
				},
				"metallicRoughnessTexture":{
					"index":2
				}
			}
		}
	],
	"meshes":[
		{
			"name":"WoodenBucket_WoodenBucket_0",
			"primitives":[
				{
					"attributes":{
						"POSITION":0,
						"NORMAL":1,
						"TEXCOORD_0":2
					},
					"indices":3,
					"material":0
				}
			]
		},
		{
			"name":"WoodenBucket_WoodenBucket_0.001",
			"primitives":[
				{
					"attributes":{
						"POSITION":4,
						"NORMAL":5,
						"TEXCOORD_0":6
					},
					"indices":3,
					"material":0
				}
			]
		}
	],
	"textures":[
		{
			"sampler":0,
			"source":0
		},
		{
			"sampler":0,
			"source":1
		},
		{
			"sampler":0,
			"source":2
		}
	],
	"images":[
		{
			"mimeType":"image/jpeg",
			"name":"WoodenBucket_normal",
			"uri":"WoodenBucket_normal.jpg"
		},
		{
			"mimeType":"image/jpeg",
			"name":"WoodenBucket_baseColor",
			"uri":"WoodenBucket_baseColor.jpg"
		},
		{
			"mimeType":"image/png",
			"name":"WoodenBucket_metallicRoughness_metal_scale0-WoodenBucket_metallicRoughness_rough",
			"uri":"WoodenBucket_metallicRoughness_metal_scale0-WoodenBucket_metallicRoughness_rough.png"
		}
	],
	"accessors":[
		{
			"bufferView":0,
			"componentType":5126,
			"count":5965,
			"max":[
				6.9834747314453125,
				16.37657356262207,
				7.782039165496826
			],
			"min":[
				-6.9834747314453125,
				-9.217850310960785e-05,
				-7.852421760559082
			],
			"type":"VEC3"
		},
		{
			"bufferView":1,
			"componentType":5126,
			"count":5965,
			"type":"VEC3"
		},
		{
			"bufferView":2,
			"componentType":5126,
			"count":5965,
			"type":"VEC2"
		},
		{
			"bufferView":3,
			"componentType":5123,
			"count":26952,
			"type":"SCALAR"
		},
		{
			"bufferView":4,
			"componentType":5126,
			"count":5965,
			"max":[
				6.9834747314453125,
				16.37657356262207,
				7.782039165496826
			],
			"min":[
				-6.9834747314453125,
				-9.217850310960785e-05,
				-7.852421760559082
			],
			"type":"VEC3"
		},
		{
			"bufferView":5,
			"componentType":5126,
			"count":5965,
			"type":"VEC3"
		},
		{
			"bufferView":6,
			"componentType":5126,
			"count":5965,
			"type":"VEC2"
		}
	],
	"bufferViews":[
		{
			"buffer":0,
			"byteLength":71580,
			"byteOffset":0,
			"target":34962
		},
		{
			"buffer":0,
			"byteLength":71580,
			"byteOffset":71580,
			"target":34962
		},
		{
			"buffer":0,
			"byteLength":47720,
			"byteOffset":143160,
			"target":34962
		},
		{
			"buffer":0,
			"byteLength":53904,
			"byteOffset":190880,
			"target":34963
		},
		{
			"buffer":0,
			"byteLength":71580,
			"byteOffset":244784,
			"target":34962
		},
		{
			"buffer":0,
			"byteLength":71580,
			"byteOffset":316364,
			"target":34962
		},
		{
			"buffer":0,
			"byteLength":47720,
			"byteOffset":387944,
			"target":34962
		}
	],
	"samplers":[
		{
			"magFilter":9729,
			"minFilter":9987
		}
	],
	"buffers":[
		{
			"byteLength":435664,
			"uri":"BUCKETS_23-10.bin"
		}
	]
}
