{
	"asset":{
		"generator":"Khronos glTF Blender I/O v4.2.57",
		"version":"2.0"
	},
	"scene":0,
	"scenes":[
		{
			"name":"Scene",
			"nodes":[
				0,
				1,
				2
			]
		}
	],
	"nodes":[
		{
			"mesh":0,
			"name":"kolco_low_001__0",
			"scale":[
				0.08724136650562286,
				0.08724136650562286,
				0.08724136650562286
			],
			"translation":[
				1.3472003936767578,
				1.7233679294586182,
				-0.7158303260803223
			]
		},
		{
			"mesh":1,
			"name":"Fixator__0",
			"rotation":[
				0,
				0.7071068286895752,
				0,
				0.7071068286895752
			],
			"scale":[
				0.347345769405365,
				0.34734582901000977,
				0.34734582901000977
			],
			"translation":[
				1.6331747770309448,
				1.4934155941009521,
				-0.6923305988311768
			]
		},
		{
			"mesh":2,
			"name":"Fixator__0.001",
			"rotation":[
				0,
				-0.7071068286895752,
				0,
				0.7071068286895752
			],
			"scale":[
				0.347345769405365,
				0.34734582901000977,
				0.34734582901000977
			],
			"translation":[
				1.0698516368865967,
				1.4934155941009521,
				-0.6923305988311768
			]
		}
	],
	"materials":[
		{
			"doubleSided":true,
			"name":"Scene___Root",
			"normalTexture":{
				"index":0
			},
			"pbrMetallicRoughness":{
				"baseColorTexture":{
					"index":1
				},
				"metallicRoughnessTexture":{
					"index":2
				}
			}
		},
		{
			"alphaMode":"BLEND",
			"doubleSided":true,
			"name":"Scene___Root.001",
			"normalTexture":{
				"index":3
			},
			"pbrMetallicRoughness":{
				"baseColorTexture":{
					"index":4
				},
				"metallicRoughnessTexture":{
					"index":5
				}
			}
		}
	],
	"meshes":[
		{
			"name":"kolco_low_001__0",
			"primitives":[
				{
					"attributes":{
						"POSITION":0,
						"NORMAL":1,
						"TEXCOORD_0":2
					},
					"indices":3,
					"material":0
				}
			]
		},
		{
			"name":"Fixator__0",
			"primitives":[
				{
					"attributes":{
						"POSITION":4,
						"NORMAL":5,
						"TEXCOORD_0":6
					},
					"indices":7,
					"material":1
				}
			]
		},
		{
			"name":"Fixator__0.001",
			"primitives":[
				{
					"attributes":{
						"POSITION":8,
						"NORMAL":9,
						"TEXCOORD_0":10
					},
					"indices":7,
					"material":1
				}
			]
		}
	],
	"textures":[
		{
			"sampler":0,
			"source":0
		},
		{
			"sampler":0,
			"source":1
		},
		{
			"sampler":0,
			"source":2
		},
		{
			"sampler":0,
			"source":0
		},
		{
			"sampler":0,
			"source":3
		},
		{
			"sampler":0,
			"source":2
		}
	],
	"images":[
		{
			"mimeType":"image/jpeg",
			"name":"Scene_-_Root_normal",
			"uri":"Scene_-_Root_normal.jpg"
		},
		{
			"mimeType":"image/jpeg",
			"name":"Scene_-_Root_baseColor",
			"uri":"Scene_-_Root_baseColor.jpg"
		},
		{
			"mimeType":"image/png",
			"name":"Scene_-_Root_metallicRoughness_metal-Scene_-_Root_metallicRoughness_rough",
			"uri":"Scene_-_Root_metallicRoughness_metal-Scene_-_Root_metallicRoughness_rough.png"
		},
		{
			"mimeType":"image/png",
			"name":"Scene_-_Root_baseColor",
			"uri":"Scene_-_Root_baseColor.png"
		}
	],
	"accessors":[
		{
			"bufferView":0,
			"componentType":5126,
			"count":4569,
			"max":[
				1.8972944021224976,
				0.4417349398136139,
				1.8972944021224976
			],
			"min":[
				-1.8972944021224976,
				-2.6297757625579834,
				-1.8972944021224976
			],
			"type":"VEC3"
		},
		{
			"bufferView":1,
			"componentType":5126,
			"count":4569,
			"type":"VEC3"
		},
		{
			"bufferView":2,
			"componentType":5126,
			"count":4569,
			"type":"VEC2"
		},
		{
			"bufferView":3,
			"componentType":5123,
			"count":17736,
			"type":"SCALAR"
		},
		{
			"bufferView":4,
			"componentType":5126,
			"count":12521,
			"max":[
				0.21182075142860413,
				0.9959954023361206,
				0.2547507584095001
			],
			"min":[
				-0.21182073652744293,
				-3.0901475156497327e-07,
				-0.23423682153224945
			],
			"type":"VEC3"
		},
		{
			"bufferView":5,
			"componentType":5126,
			"count":12521,
			"type":"VEC3"
		},
		{
			"bufferView":6,
			"componentType":5126,
			"count":12521,
			"type":"VEC2"
		},
		{
			"bufferView":7,
			"componentType":5123,
			"count":65700,
			"type":"SCALAR"
		},
		{
			"bufferView":8,
			"componentType":5126,
			"count":12521,
			"max":[
				0.21182075142860413,
				0.9959954023361206,
				0.2547507584095001
			],
			"min":[
				-0.21182073652744293,
				-3.0901475156497327e-07,
				-0.23423682153224945
			],
			"type":"VEC3"
		},
		{
			"bufferView":9,
			"componentType":5126,
			"count":12521,
			"type":"VEC3"
		},
		{
			"bufferView":10,
			"componentType":5126,
			"count":12521,
			"type":"VEC2"
		}
	],
	"bufferViews":[
		{
			"buffer":0,
			"byteLength":54828,
			"byteOffset":0,
			"target":34962
		},
		{
			"buffer":0,
			"byteLength":54828,
			"byteOffset":54828,
			"target":34962
		},
		{
			"buffer":0,
			"byteLength":36552,
			"byteOffset":109656,
			"target":34962
		},
		{
			"buffer":0,
			"byteLength":35472,
			"byteOffset":146208,
			"target":34963
		},
		{
			"buffer":0,
			"byteLength":150252,
			"byteOffset":181680,
			"target":34962
		},
		{
			"buffer":0,
			"byteLength":150252,
			"byteOffset":331932,
			"target":34962
		},
		{
			"buffer":0,
			"byteLength":100168,
			"byteOffset":482184,
			"target":34962
		},
		{
			"buffer":0,
			"byteLength":131400,
			"byteOffset":582352,
			"target":34963
		},
		{
			"buffer":0,
			"byteLength":150252,
			"byteOffset":713752,
			"target":34962
		},
		{
			"buffer":0,
			"byteLength":150252,
			"byteOffset":864004,
			"target":34962
		},
		{
			"buffer":0,
			"byteLength":100168,
			"byteOffset":1014256,
			"target":34962
		}
	],
	"samplers":[
		{
			"magFilter":9729,
			"minFilter":9987
		}
	],
	"buffers":[
		{
			"byteLength":1114424,
			"uri":"CHAIRS_TABEL_23-10.bin"
		}
	]
}
