{
	"asset":{
		"generator":"Khronos glTF Blender I/O v4.2.57",
		"version":"2.0"
	},
	"extensionsUsed":[
		"KHR_materials_specular",
		"KHR_materials_ior"
	],
	"scene":0,
	"scenes":[
		{
			"name":"Scene",
			"nodes":[
				0,
				1,
				2,
				3
			]
		}
	],
	"nodes":[
		{
			"mesh":0,
			"name":"Cube.001",
			"scale":[
				2.4088070392608643,
				1,
				1.5482399463653564
			],
			"translation":[
				1.117840051651001,
				1.9984989166259766,
				-0.7359021902084351
			]
		},
		{
			"mesh":1,
			"name":"kolco_low_001__0",
			"scale":[
				0.08724136650562286,
				0.08724136650562286,
				0.08724136650562286
			],
			"translation":[
				1.3472003936767578,
				1.7233679294586182,
				-0.7158303260803223
			]
		},
		{
			"mesh":2,
			"name":"Fixator__0",
			"rotation":[
				0,
				0.7071068286895752,
				0,
				0.7071068286895752
			],
			"scale":[
				0.347345769405365,
				0.34734582901000977,
				0.34734582901000977
			],
			"translation":[
				1.6331747770309448,
				1.4934155941009521,
				-0.6923305988311768
			]
		},
		{
			"mesh":3,
			"name":"Fixator__0.001",
			"rotation":[
				0,
				-0.7071068286895752,
				0,
				0.7071068286895752
			],
			"scale":[
				0.347345769405365,
				0.34734582901000977,
				0.34734582901000977
			],
			"translation":[
				1.0698516368865967,
				1.4934155941009521,
				-0.6923305988311768
			]
		}
	],
	"materials":[
		{
			"doubleSided":true,
			"extensions":{
				"KHR_materials_specular":{
					"specularFactor":0
				},
				"KHR_materials_ior":{
					"ior":1.4500000476837158
				}
			},
			"name":"Sinister Wall",
			"normalTexture":{
				"index":0,
				"texCoord":1
			},
			"pbrMetallicRoughness":{
				"baseColorTexture":{
					"index":1,
					"texCoord":1
				},
				"metallicFactor":0,
				"metallicRoughnessTexture":{
					"index":2,
					"texCoord":1
				}
			}
		},
		{
			"doubleSided":true,
			"name":"Scene___Root",
			"normalTexture":{
				"index":3
			},
			"pbrMetallicRoughness":{
				"baseColorTexture":{
					"index":4
				},
				"metallicRoughnessTexture":{
					"index":5
				}
			}
		},
		{
			"alphaMode":"BLEND",
			"doubleSided":true,
			"name":"Scene___Root.001",
			"normalTexture":{
				"index":6
			},
			"pbrMetallicRoughness":{
				"baseColorTexture":{
					"index":7
				},
				"metallicRoughnessTexture":{
					"index":8
				}
			}
		}
	],
	"meshes":[
		{
			"name":"Cube.003",
			"primitives":[
				{
					"attributes":{
						"POSITION":0,
						"NORMAL":1,
						"TEXCOORD_0":2,
						"TEXCOORD_1":3
					},
					"indices":4,
					"material":0
				}
			]
		},
		{
			"name":"kolco_low_001__0",
			"primitives":[
				{
					"attributes":{
						"POSITION":5,
						"NORMAL":6,
						"TEXCOORD_0":7
					},
					"indices":8,
					"material":1
				}
			]
		},
		{
			"name":"Fixator__0",
			"primitives":[
				{
					"attributes":{
						"POSITION":9,
						"NORMAL":10,
						"TEXCOORD_0":11
					},
					"indices":12,
					"material":2
				}
			]
		},
		{
			"name":"Fixator__0.001",
			"primitives":[
				{
					"attributes":{
						"POSITION":13,
						"NORMAL":14,
						"TEXCOORD_0":15
					},
					"indices":12,
					"material":2
				}
			]
		}
	],
	"textures":[
		{
			"sampler":0,
			"source":0
		},
		{
			"sampler":0,
			"source":1
		},
		{
			"sampler":0,
			"source":2
		},
		{
			"sampler":0,
			"source":3
		},
		{
			"sampler":0,
			"source":4
		},
		{
			"sampler":0,
			"source":5
		},
		{
			"sampler":0,
			"source":3
		},
		{
			"sampler":0,
			"source":6
		},
		{
			"sampler":0,
			"source":5
		}
	],
	"images":[
		{
			"mimeType":"image/jpeg",
			"name":"_Normal_",
			"uri":"_Normal_.jpg"
		},
		{
			"mimeType":"image/jpeg",
			"name":"_Diffuse_",
			"uri":"_Diffuse_.jpg"
		},
		{
			"mimeType":"image/png",
			"name":"_Roughness_",
			"uri":"_Roughness_.png"
		},
		{
			"mimeType":"image/jpeg",
			"name":"Scene_-_Root_normal",
			"uri":"Scene_-_Root_normal.jpg"
		},
		{
			"mimeType":"image/jpeg",
			"name":"Scene_-_Root_baseColor",
			"uri":"Scene_-_Root_baseColor.jpg"
		},
		{
			"mimeType":"image/png",
			"name":"Scene_-_Root_metallicRoughness_metal-Scene_-_Root_metallicRoughness_rough",
			"uri":"Scene_-_Root_metallicRoughness_metal-Scene_-_Root_metallicRoughness_rough.png"
		},
		{
			"mimeType":"image/png",
			"name":"Scene_-_Root_baseColor",
			"uri":"Scene_-_Root_baseColor.png"
		}
	],
	"accessors":[
		{
			"bufferView":0,
			"componentType":5126,
			"count":56,
			"max":[
				0.42849934101104736,
				0,
				0.4172477126121521
			],
			"min":[
				-0.4284992814064026,
				-0.5317240953445435,
				-0.4172477722167969
			],
			"type":"VEC3"
		},
		{
			"bufferView":1,
			"componentType":5126,
			"count":56,
			"type":"VEC3"
		},
		{
			"bufferView":2,
			"componentType":5126,
			"count":56,
			"type":"VEC2"
		},
		{
			"bufferView":3,
			"componentType":5126,
			"count":56,
			"type":"VEC2"
		},
		{
			"bufferView":4,
			"componentType":5123,
			"count":84,
			"type":"SCALAR"
		},
		{
			"bufferView":5,
			"componentType":5126,
			"count":4569,
			"max":[
				1.8972944021224976,
				0.4417349398136139,
				1.8972944021224976
			],
			"min":[
				-1.8972944021224976,
				-2.6297757625579834,
				-1.8972944021224976
			],
			"type":"VEC3"
		},
		{
			"bufferView":6,
			"componentType":5126,
			"count":4569,
			"type":"VEC3"
		},
		{
			"bufferView":7,
			"componentType":5126,
			"count":4569,
			"type":"VEC2"
		},
		{
			"bufferView":8,
			"componentType":5123,
			"count":17736,
			"type":"SCALAR"
		},
		{
			"bufferView":9,
			"componentType":5126,
			"count":12521,
			"max":[
				0.21182075142860413,
				0.9959954023361206,
				0.2547507584095001
			],
			"min":[
				-0.21182073652744293,
				-3.0901475156497327e-07,
				-0.23423682153224945
			],
			"type":"VEC3"
		},
		{
			"bufferView":10,
			"componentType":5126,
			"count":12521,
			"type":"VEC3"
		},
		{
			"bufferView":11,
			"componentType":5126,
			"count":12521,
			"type":"VEC2"
		},
		{
			"bufferView":12,
			"componentType":5123,
			"count":65700,
			"type":"SCALAR"
		},
		{
			"bufferView":13,
			"componentType":5126,
			"count":12521,
			"max":[
				0.21182075142860413,
				0.9959954023361206,
				0.2547507584095001
			],
			"min":[
				-0.21182073652744293,
				-3.0901475156497327e-07,
				-0.23423682153224945
			],
			"type":"VEC3"
		},
		{
			"bufferView":14,
			"componentType":5126,
			"count":12521,
			"type":"VEC3"
		},
		{
			"bufferView":15,
			"componentType":5126,
			"count":12521,
			"type":"VEC2"
		}
	],
	"bufferViews":[
		{
			"buffer":0,
			"byteLength":672,
			"byteOffset":0,
			"target":34962
		},
		{
			"buffer":0,
			"byteLength":672,
			"byteOffset":672,
			"target":34962
		},
		{
			"buffer":0,
			"byteLength":448,
			"byteOffset":1344,
			"target":34962
		},
		{
			"buffer":0,
			"byteLength":448,
			"byteOffset":1792,
			"target":34962
		},
		{
			"buffer":0,
			"byteLength":168,
			"byteOffset":2240,
			"target":34963
		},
		{
			"buffer":0,
			"byteLength":54828,
			"byteOffset":2408,
			"target":34962
		},
		{
			"buffer":0,
			"byteLength":54828,
			"byteOffset":57236,
			"target":34962
		},
		{
			"buffer":0,
			"byteLength":36552,
			"byteOffset":112064,
			"target":34962
		},
		{
			"buffer":0,
			"byteLength":35472,
			"byteOffset":148616,
			"target":34963
		},
		{
			"buffer":0,
			"byteLength":150252,
			"byteOffset":184088,
			"target":34962
		},
		{
			"buffer":0,
			"byteLength":150252,
			"byteOffset":334340,
			"target":34962
		},
		{
			"buffer":0,
			"byteLength":100168,
			"byteOffset":484592,
			"target":34962
		},
		{
			"buffer":0,
			"byteLength":131400,
			"byteOffset":584760,
			"target":34963
		},
		{
			"buffer":0,
			"byteLength":150252,
			"byteOffset":716160,
			"target":34962
		},
		{
			"buffer":0,
			"byteLength":150252,
			"byteOffset":866412,
			"target":34962
		},
		{
			"buffer":0,
			"byteLength":100168,
			"byteOffset":1016664,
			"target":34962
		}
	],
	"samplers":[
		{
			"magFilter":9729,
			"minFilter":9987
		}
	],
	"buffers":[
		{
			"byteLength":1116832,
			"uri":"FULL-ROOM_EXTRA-ROOM_23-10.bin"
		}
	]
}
