{
	"asset":{
		"generator":"Khronos glTF Blender I/O v4.2.57",
		"version":"2.0"
	},
	"extensionsUsed":[
		"KHR_materials_specular",
		"KHR_materials_ior"
	],
	"scene":0,
	"scenes":[
		{
			"name":"Scene",
			"nodes":[
				0,
				1,
				2,
				3,
				4,
				5,
				6,
				7,
				8,
				9,
				10,
				11
			]
		}
	],
	"nodes":[
		{
			"mesh":0,
			"name":"Cube",
			"scale":[
				2.4088070392608643,
				1,
				1.5482399463653564
			],
			"translation":[
				0,
				1.0000089406967163,
				0
			]
		},
		{
			"mesh":1,
			"name":"Cube.001",
			"scale":[
				2.4088070392608643,
				1,
				1.5482399463653564
			],
			"translation":[
				1.117840051651001,
				1.9984989166259766,
				-0.7359021902084351
			]
		},
		{
			"mesh":2,
			"name":"kolco_low_001__0",
			"scale":[
				0.08724136650562286,
				0.08724136650562286,
				0.08724136650562286
			],
			"translation":[
				1.3472003936767578,
				1.7233679294586182,
				-0.7158303260803223
			]
		},
		{
			"mesh":3,
			"name":"Fixator__0",
			"rotation":[
				0,
				0.7071068286895752,
				0,
				0.7071068286895752
			],
			"scale":[
				0.347345769405365,
				0.34734582901000977,
				0.34734582901000977
			],
			"translation":[
				1.6331747770309448,
				1.4934155941009521,
				-0.6923305988311768
			]
		},
		{
			"mesh":4,
			"name":"Fixator__0.001",
			"rotation":[
				0,
				-0.7071068286895752,
				0,
				0.7071068286895752
			],
			"scale":[
				0.347345769405365,
				0.34734582901000977,
				0.34734582901000977
			],
			"translation":[
				1.0698516368865967,
				1.4934155941009521,
				-0.6923305988311768
			]
		},
		{
			"mesh":5,
			"name":"Cube.002",
			"scale":[
				2.4088070392608643,
				1,
				1.5482399463653564
			],
			"translation":[
				0,
				2.4010512828826904,
				0
			]
		},
		{
			"mesh":6,
			"name":"Cube.003",
			"scale":[
				2.4088070392608643,
				1,
				1.5482399463653564
			],
			"translation":[
				0,
				2.4010512828826904,
				0
			]
		},
		{
			"mesh":7,
			"name":"Cube.004",
			"scale":[
				2.4088070392608643,
				1,
				1.5482399463653564
			],
			"translation":[
				0,
				2.4010512828826904,
				0
			]
		},
		{
			"mesh":8,
			"name":"Object_0",
			"scale":[
				0.00435180077329278,
				0.0043518017046153545,
				0.0043518017046153545
			],
			"translation":[
				-1.0924396514892578,
				1.5323234796524048,
				0.7142874002456665
			]
		},
		{
			"mesh":9,
			"name":"Sofa020_001_Sofa020_0",
			"scale":[
				0.0026232521049678326,
				0.0026232521049678326,
				0.0026232521049678326
			],
			"translation":[
				-1.0325428247451782,
				1.5402976274490356,
				-0.7495496273040771
			]
		},
		{
			"mesh":10,
			"name":"WoodenBucket_WoodenBucket_0",
			"scale":[
				0.020127292722463608,
				0.020127294585108757,
				0.020127294585108757
			],
			"translation":[
				0.6777251958847046,
				1.5294322967529297,
				0.7555927038192749
			]
		},
		{
			"mesh":11,
			"name":"WoodenBucket_WoodenBucket_0.001",
			"scale":[
				0.020127292722463608,
				0.020127294585108757,
				0.020127294585108757
			],
			"translation":[
				1.4576245546340942,
				1.5294322967529297,
				0.7555927038192749
			]
		}
	],
	"materials":[
		{
			"doubleSided":true,
			"name":"Plaster wall",
			"normalTexture":{
				"index":0,
				"scale":0.5,
				"texCoord":1
			},
			"pbrMetallicRoughness":{
				"baseColorTexture":{
					"index":1,
					"texCoord":1
				},
				"metallicFactor":0,
				"metallicRoughnessTexture":{
					"index":2,
					"texCoord":1
				}
			}
		},
		{
			"doubleSided":true,
			"extensions":{
				"KHR_materials_specular":{
					"specularFactor":0
				},
				"KHR_materials_ior":{
					"ior":1.4500000476837158
				}
			},
			"name":"Sinister Wall",
			"normalTexture":{
				"index":3,
				"texCoord":1
			},
			"pbrMetallicRoughness":{
				"baseColorTexture":{
					"index":4,
					"texCoord":1
				},
				"metallicFactor":0,
				"metallicRoughnessTexture":{
					"index":5,
					"texCoord":1
				}
			}
		},
		{
			"doubleSided":true,
			"name":"Scene___Root",
			"normalTexture":{
				"index":6
			},
			"pbrMetallicRoughness":{
				"baseColorTexture":{
					"index":7
				},
				"metallicRoughnessTexture":{
					"index":8
				}
			}
		},
		{
			"alphaMode":"BLEND",
			"doubleSided":true,
			"name":"Scene___Root.001",
			"normalTexture":{
				"index":9
			},
			"pbrMetallicRoughness":{
				"baseColorTexture":{
					"index":10
				},
				"metallicRoughnessTexture":{
					"index":11
				}
			}
		},
		{
			"doubleSided":true,
			"name":"Damaged wall",
			"normalTexture":{
				"index":12,
				"texCoord":1
			},
			"pbrMetallicRoughness":{
				"baseColorTexture":{
					"index":13,
					"texCoord":1
				},
				"metallicFactor":0,
				"metallicRoughnessTexture":{
					"index":14,
					"texCoord":1
				}
			}
		},
		{
			"doubleSided":true,
			"name":"Stucco wall",
			"normalTexture":{
				"index":15,
				"texCoord":1
			},
			"pbrMetallicRoughness":{
				"baseColorTexture":{
					"index":16,
					"texCoord":1
				},
				"metallicFactor":0,
				"metallicRoughnessTexture":{
					"index":17,
					"texCoord":1
				}
			}
		},
		{
			"doubleSided":true,
			"name":"Brick wall",
			"normalTexture":{
				"index":18,
				"texCoord":1
			},
			"pbrMetallicRoughness":{
				"baseColorTexture":{
					"index":19,
					"texCoord":1
				},
				"metallicRoughnessTexture":{
					"index":20,
					"texCoord":1
				}
			}
		},
		{
			"doubleSided":true,
			"extensions":{
				"KHR_materials_specular":{
					"specularColorTexture":{
						"index":21
					}
				}
			},
			"name":"material",
			"normalTexture":{
				"index":22
			},
			"pbrMetallicRoughness":{
				"baseColorTexture":{
					"index":23
				},
				"metallicFactor":0,
				"roughnessFactor":0.5
			}
		},
		{
			"doubleSided":true,
			"extensions":{
				"KHR_materials_specular":{
					"specularColorTexture":{
						"index":24
					}
				}
			},
			"name":"Sofa020",
			"normalTexture":{
				"index":25
			},
			"pbrMetallicRoughness":{
				"baseColorTexture":{
					"index":26
				},
				"metallicFactor":0,
				"roughnessFactor":0.5
			}
		},
		{
			"doubleSided":true,
			"name":"WoodenBucket",
			"normalTexture":{
				"index":27
			},
			"pbrMetallicRoughness":{
				"baseColorTexture":{
					"index":28
				},
				"metallicRoughnessTexture":{
					"index":29
				}
			}
		}
	],
	"meshes":[
		{
			"name":"Cube.001",
			"primitives":[
				{
					"attributes":{
						"POSITION":0,
						"NORMAL":1,
						"TEXCOORD_0":2,
						"TEXCOORD_1":3
					},
					"indices":4,
					"material":0
				}
			]
		},
		{
			"name":"Cube.003",
			"primitives":[
				{
					"attributes":{
						"POSITION":5,
						"NORMAL":6,
						"TEXCOORD_0":7,
						"TEXCOORD_1":8
					},
					"indices":9,
					"material":1
				}
			]
		},
		{
			"name":"kolco_low_001__0",
			"primitives":[
				{
					"attributes":{
						"POSITION":10,
						"NORMAL":11,
						"TEXCOORD_0":12
					},
					"indices":13,
					"material":2
				}
			]
		},
		{
			"name":"Fixator__0",
			"primitives":[
				{
					"attributes":{
						"POSITION":14,
						"NORMAL":15,
						"TEXCOORD_0":16
					},
					"indices":17,
					"material":3
				}
			]
		},
		{
			"name":"Fixator__0.001",
			"primitives":[
				{
					"attributes":{
						"POSITION":18,
						"NORMAL":19,
						"TEXCOORD_0":20
					},
					"indices":17,
					"material":3
				}
			]
		},
		{
			"name":"Cube.004",
			"primitives":[
				{
					"attributes":{
						"POSITION":21,
						"NORMAL":22,
						"TEXCOORD_0":23,
						"TEXCOORD_1":24
					},
					"indices":25,
					"material":4
				}
			]
		},
		{
			"name":"Cube.005",
			"primitives":[
				{
					"attributes":{
						"POSITION":26,
						"NORMAL":27,
						"TEXCOORD_0":28,
						"TEXCOORD_1":29
					},
					"indices":30,
					"material":5
				}
			]
		},
		{
			"name":"Cube.006",
			"primitives":[
				{
					"attributes":{
						"POSITION":31,
						"NORMAL":32,
						"TEXCOORD_0":33,
						"TEXCOORD_1":34
					},
					"indices":35,
					"material":6
				}
			]
		},
		{
			"name":"Object_0",
			"primitives":[
				{
					"attributes":{
						"POSITION":36,
						"NORMAL":37,
						"TEXCOORD_0":38
					},
					"indices":39,
					"material":7
				}
			]
		},
		{
			"name":"Sofa020_001_Sofa020_0",
			"primitives":[
				{
					"attributes":{
						"POSITION":40,
						"NORMAL":41,
						"TEXCOORD_0":42
					},
					"indices":43,
					"material":8
				}
			]
		},
		{
			"name":"WoodenBucket_WoodenBucket_0",
			"primitives":[
				{
					"attributes":{
						"POSITION":44,
						"NORMAL":45,
						"TEXCOORD_0":46
					},
					"indices":47,
					"material":9
				}
			]
		},
		{
			"name":"WoodenBucket_WoodenBucket_0.001",
			"primitives":[
				{
					"attributes":{
						"POSITION":48,
						"NORMAL":49,
						"TEXCOORD_0":50
					},
					"indices":47,
					"material":9
				}
			]
		}
	],
	"textures":[
		{
			"sampler":0,
			"source":0
		},
		{
			"sampler":0,
			"source":1
		},
		{
			"sampler":0,
			"source":2
		},
		{
			"sampler":0,
			"source":3
		},
		{
			"sampler":0,
			"source":4
		},
		{
			"sampler":0,
			"source":5
		},
		{
			"sampler":0,
			"source":6
		},
		{
			"sampler":0,
			"source":7
		},
		{
			"sampler":0,
			"source":8
		},
		{
			"sampler":0,
			"source":6
		},
		{
			"sampler":0,
			"source":9
		},
		{
			"sampler":0,
			"source":8
		},
		{
			"sampler":0,
			"source":10
		},
		{
			"sampler":0,
			"source":11
		},
		{
			"sampler":0,
			"source":12
		},
		{
			"sampler":0,
			"source":13
		},
		{
			"sampler":0,
			"source":14
		},
		{
			"sampler":0,
			"source":15
		},
		{
			"sampler":0,
			"source":16
		},
		{
			"sampler":0,
			"source":17
		},
		{
			"sampler":0,
			"source":18
		},
		{
			"sampler":0,
			"source":19
		},
		{
			"sampler":0,
			"source":20
		},
		{
			"sampler":0,
			"source":21
		},
		{
			"sampler":0,
			"source":22
		},
		{
			"sampler":0,
			"source":23
		},
		{
			"sampler":0,
			"source":24
		},
		{
			"sampler":0,
			"source":25
		},
		{
			"sampler":0,
			"source":26
		},
		{
			"sampler":0,
			"source":27
		}
	],
	"images":[
		{
			"mimeType":"image/jpeg",
			"name":"plaster_wall_21_94_normal",
			"uri":"plaster_wall_21_94_normal.jpg"
		},
		{
			"mimeType":"image/jpeg",
			"name":"plaster_wall_21_94_diffuse",
			"uri":"plaster_wall_21_94_diffuse.jpg"
		},
		{
			"mimeType":"image/png",
			"name":"plaster_wall_21_94_roughness",
			"uri":"plaster_wall_21_94_roughness.png"
		},
		{
			"mimeType":"image/jpeg",
			"name":"_Normal_",
			"uri":"_Normal_.jpg"
		},
		{
			"mimeType":"image/jpeg",
			"name":"_Diffuse_",
			"uri":"_Diffuse_.jpg"
		},
		{
			"mimeType":"image/png",
			"name":"_Roughness_",
			"uri":"_Roughness_.png"
		},
		{
			"mimeType":"image/jpeg",
			"name":"Scene_-_Root_normal",
			"uri":"Scene_-_Root_normal.jpg"
		},
		{
			"mimeType":"image/jpeg",
			"name":"Scene_-_Root_baseColor",
			"uri":"Scene_-_Root_baseColor.jpg"
		},
		{
			"mimeType":"image/png",
			"name":"Scene_-_Root_metallicRoughness_metal-Scene_-_Root_metallicRoughness_rough",
			"uri":"Scene_-_Root_metallicRoughness_metal-Scene_-_Root_metallicRoughness_rough.png"
		},
		{
			"mimeType":"image/png",
			"name":"Scene_-_Root_baseColor",
			"uri":"Scene_-_Root_baseColor.png"
		},
		{
			"mimeType":"image/jpeg",
			"name":"wall_normal",
			"uri":"wall_normal.jpg"
		},
		{
			"mimeType":"image/jpeg",
			"name":"wall_diffuse",
			"uri":"wall_diffuse.jpg"
		},
		{
			"mimeType":"image/png",
			"name":"wall_glossiness",
			"uri":"wall_glossiness.png"
		},
		{
			"mimeType":"image/jpeg",
			"name":"wall02_normal",
			"uri":"wall02_normal.jpg"
		},
		{
			"mimeType":"image/jpeg",
			"name":"wall02_diffuse",
			"uri":"wall02_diffuse.jpg"
		},
		{
			"mimeType":"image/png",
			"name":"wall02_glossiness",
			"uri":"wall02_glossiness.png"
		},
		{
			"mimeType":"image/jpeg",
			"name":"Brick_Normal",
			"uri":"Brick_Normal.jpg"
		},
		{
			"mimeType":"image/jpeg",
			"name":"Brick_BaseColor",
			"uri":"Brick_BaseColor.jpg"
		},
		{
			"mimeType":"image/jpeg",
			"name":"Brick_OcclusionRoughnessMetallic",
			"uri":"Brick_OcclusionRoughnessMetallic.jpg"
		},
		{
			"mimeType":"image/jpeg",
			"name":"material_specularGlossiness_spec",
			"uri":"material_specularGlossiness_spec.jpg"
		},
		{
			"mimeType":"image/jpeg",
			"name":"material_normal",
			"uri":"material_normal.jpg"
		},
		{
			"mimeType":"image/jpeg",
			"name":"material_diffuse",
			"uri":"material_diffuse.jpg"
		},
		{
			"mimeType":"image/jpeg",
			"name":"Sofa020_specularGlossiness_spec",
			"uri":"Sofa020_specularGlossiness_spec.jpg"
		},
		{
			"mimeType":"image/jpeg",
			"name":"Sofa020_normal",
			"uri":"Sofa020_normal.jpg"
		},
		{
			"mimeType":"image/jpeg",
			"name":"Sofa020_diffuse",
			"uri":"Sofa020_diffuse.jpg"
		},
		{
			"mimeType":"image/jpeg",
			"name":"WoodenBucket_normal",
			"uri":"WoodenBucket_normal.jpg"
		},
		{
			"mimeType":"image/jpeg",
			"name":"WoodenBucket_baseColor",
			"uri":"WoodenBucket_baseColor.jpg"
		},
		{
			"mimeType":"image/png",
			"name":"WoodenBucket_metallicRoughness_metal_scale0-WoodenBucket_metallicRoughness_rough",
			"uri":"WoodenBucket_metallicRoughness_metal_scale0-WoodenBucket_metallicRoughness_rough.png"
		}
	],
	"accessors":[
		{
			"bufferView":0,
			"componentType":5126,
			"count":188,
			"max":[
				1,
				1,
				1
			],
			"min":[
				-1,
				-1,
				-1
			],
			"type":"VEC3"
		},
		{
			"bufferView":1,
			"componentType":5126,
			"count":188,
			"type":"VEC3"
		},
		{
			"bufferView":2,
			"componentType":5126,
			"count":188,
			"type":"VEC2"
		},
		{
			"bufferView":3,
			"componentType":5126,
			"count":188,
			"type":"VEC2"
		},
		{
			"bufferView":4,
			"componentType":5123,
			"count":396,
			"type":"SCALAR"
		},
		{
			"bufferView":5,
			"componentType":5126,
			"count":56,
			"max":[
				0.42849934101104736,
				0,
				0.4172477126121521
			],
			"min":[
				-0.4284992814064026,
				-0.5317240953445435,
				-0.4172477722167969
			],
			"type":"VEC3"
		},
		{
			"bufferView":6,
			"componentType":5126,
			"count":56,
			"type":"VEC3"
		},
		{
			"bufferView":7,
			"componentType":5126,
			"count":56,
			"type":"VEC2"
		},
		{
			"bufferView":8,
			"componentType":5126,
			"count":56,
			"type":"VEC2"
		},
		{
			"bufferView":9,
			"componentType":5123,
			"count":84,
			"type":"SCALAR"
		},
		{
			"bufferView":10,
			"componentType":5126,
			"count":4569,
			"max":[
				1.8972944021224976,
				0.4417349398136139,
				1.8972944021224976
			],
			"min":[
				-1.8972944021224976,
				-2.6297757625579834,
				-1.8972944021224976
			],
			"type":"VEC3"
		},
		{
			"bufferView":11,
			"componentType":5126,
			"count":4569,
			"type":"VEC3"
		},
		{
			"bufferView":12,
			"componentType":5126,
			"count":4569,
			"type":"VEC2"
		},
		{
			"bufferView":13,
			"componentType":5123,
			"count":17736,
			"type":"SCALAR"
		},
		{
			"bufferView":14,
			"componentType":5126,
			"count":12521,
			"max":[
				0.21182075142860413,
				0.9959954023361206,
				0.2547507584095001
			],
			"min":[
				-0.21182073652744293,
				-3.0901475156497327e-07,
				-0.23423682153224945
			],
			"type":"VEC3"
		},
		{
			"bufferView":15,
			"componentType":5126,
			"count":12521,
			"type":"VEC3"
		},
		{
			"bufferView":16,
			"componentType":5126,
			"count":12521,
			"type":"VEC2"
		},
		{
			"bufferView":17,
			"componentType":5123,
			"count":65700,
			"type":"SCALAR"
		},
		{
			"bufferView":18,
			"componentType":5126,
			"count":12521,
			"max":[
				0.21182075142860413,
				0.9959954023361206,
				0.2547507584095001
			],
			"min":[
				-0.21182073652744293,
				-3.0901475156497327e-07,
				-0.23423682153224945
			],
			"type":"VEC3"
		},
		{
			"bufferView":19,
			"componentType":5126,
			"count":12521,
			"type":"VEC3"
		},
		{
			"bufferView":20,
			"componentType":5126,
			"count":12521,
			"type":"VEC2"
		},
		{
			"bufferView":21,
			"componentType":5126,
			"count":56,
			"max":[
				0.8925631046295166,
				-0.39845138788223267,
				0.8925631046295166
			],
			"min":[
				0.03556448221206665,
				-0.8925631046295166,
				0.05512889847159386
			],
			"type":"VEC3"
		},
		{
			"bufferView":22,
			"componentType":5126,
			"count":56,
			"type":"VEC3"
		},
		{
			"bufferView":23,
			"componentType":5126,
			"count":56,
			"type":"VEC2"
		},
		{
			"bufferView":24,
			"componentType":5126,
			"count":56,
			"type":"VEC2"
		},
		{
			"bufferView":25,
			"componentType":5123,
			"count":84,
			"type":"SCALAR"
		},
		{
			"bufferView":26,
			"componentType":5126,
			"count":56,
			"max":[
				-0.037119824439287186,
				-0.40287983417510986,
				-0.05806761980056763
			],
			"min":[
				-0.8925631046295166,
				-0.8925631046295166,
				-0.8925631046295166
			],
			"type":"VEC3"
		},
		{
			"bufferView":27,
			"componentType":5126,
			"count":56,
			"type":"VEC3"
		},
		{
			"bufferView":28,
			"componentType":5126,
			"count":56,
			"type":"VEC2"
		},
		{
			"bufferView":29,
			"componentType":5126,
			"count":56,
			"type":"VEC2"
		},
		{
			"bufferView":30,
			"componentType":5123,
			"count":84,
			"type":"SCALAR"
		},
		{
			"bufferView":31,
			"componentType":5126,
			"count":56,
			"max":[
				-0.037119824439287186,
				-0.40287619829177856,
				0.8925631046295166
			],
			"min":[
				-0.8925631046295166,
				-0.8925631046295166,
				0.05512889847159386
			],
			"type":"VEC3"
		},
		{
			"bufferView":32,
			"componentType":5126,
			"count":56,
			"type":"VEC3"
		},
		{
			"bufferView":33,
			"componentType":5126,
			"count":56,
			"type":"VEC2"
		},
		{
			"bufferView":34,
			"componentType":5126,
			"count":56,
			"type":"VEC2"
		},
		{
			"bufferView":35,
			"componentType":5123,
			"count":84,
			"type":"SCALAR"
		},
		{
			"bufferView":36,
			"componentType":5126,
			"count":6875,
			"max":[
				69.10060119628906,
				70.71710205078125,
				36.77130126953125
			],
			"min":[
				-68.72660064697266,
				0,
				-39.177101135253906
			],
			"type":"VEC3"
		},
		{
			"bufferView":37,
			"componentType":5126,
			"count":6875,
			"type":"VEC3"
		},
		{
			"bufferView":38,
			"componentType":5126,
			"count":6875,
			"type":"VEC2"
		},
		{
			"bufferView":39,
			"componentType":5123,
			"count":30108,
			"type":"SCALAR"
		},
		{
			"bufferView":40,
			"componentType":5126,
			"count":804,
			"max":[
				81.2890625,
				135.63226318359375,
				65.86792755126953
			],
			"min":[
				-81.28905487060547,
				-2.14615535736084,
				-66.25228118896484
			],
			"type":"VEC3"
		},
		{
			"bufferView":41,
			"componentType":5126,
			"count":804,
			"type":"VEC3"
		},
		{
			"bufferView":42,
			"componentType":5126,
			"count":804,
			"type":"VEC2"
		},
		{
			"bufferView":43,
			"componentType":5123,
			"count":3666,
			"type":"SCALAR"
		},
		{
			"bufferView":44,
			"componentType":5126,
			"count":5965,
			"max":[
				6.9834747314453125,
				16.37657356262207,
				7.782039165496826
			],
			"min":[
				-6.9834747314453125,
				-9.217850310960785e-05,
				-7.852421760559082
			],
			"type":"VEC3"
		},
		{
			"bufferView":45,
			"componentType":5126,
			"count":5965,
			"type":"VEC3"
		},
		{
			"bufferView":46,
			"componentType":5126,
			"count":5965,
			"type":"VEC2"
		},
		{
			"bufferView":47,
			"componentType":5123,
			"count":26952,
			"type":"SCALAR"
		},
		{
			"bufferView":48,
			"componentType":5126,
			"count":5965,
			"max":[
				6.9834747314453125,
				16.37657356262207,
				7.782039165496826
			],
			"min":[
				-6.9834747314453125,
				-9.217850310960785e-05,
				-7.852421760559082
			],
			"type":"VEC3"
		},
		{
			"bufferView":49,
			"componentType":5126,
			"count":5965,
			"type":"VEC3"
		},
		{
			"bufferView":50,
			"componentType":5126,
			"count":5965,
			"type":"VEC2"
		}
	],
	"bufferViews":[
		{
			"buffer":0,
			"byteLength":2256,
			"byteOffset":0,
			"target":34962
		},
		{
			"buffer":0,
			"byteLength":2256,
			"byteOffset":2256,
			"target":34962
		},
		{
			"buffer":0,
			"byteLength":1504,
			"byteOffset":4512,
			"target":34962
		},
		{
			"buffer":0,
			"byteLength":1504,
			"byteOffset":6016,
			"target":34962
		},
		{
			"buffer":0,
			"byteLength":792,
			"byteOffset":7520,
			"target":34963
		},
		{
			"buffer":0,
			"byteLength":672,
			"byteOffset":8312,
			"target":34962
		},
		{
			"buffer":0,
			"byteLength":672,
			"byteOffset":8984,
			"target":34962
		},
		{
			"buffer":0,
			"byteLength":448,
			"byteOffset":9656,
			"target":34962
		},
		{
			"buffer":0,
			"byteLength":448,
			"byteOffset":10104,
			"target":34962
		},
		{
			"buffer":0,
			"byteLength":168,
			"byteOffset":10552,
			"target":34963
		},
		{
			"buffer":0,
			"byteLength":54828,
			"byteOffset":10720,
			"target":34962
		},
		{
			"buffer":0,
			"byteLength":54828,
			"byteOffset":65548,
			"target":34962
		},
		{
			"buffer":0,
			"byteLength":36552,
			"byteOffset":120376,
			"target":34962
		},
		{
			"buffer":0,
			"byteLength":35472,
			"byteOffset":156928,
			"target":34963
		},
		{
			"buffer":0,
			"byteLength":150252,
			"byteOffset":192400,
			"target":34962
		},
		{
			"buffer":0,
			"byteLength":150252,
			"byteOffset":342652,
			"target":34962
		},
		{
			"buffer":0,
			"byteLength":100168,
			"byteOffset":492904,
			"target":34962
		},
		{
			"buffer":0,
			"byteLength":131400,
			"byteOffset":593072,
			"target":34963
		},
		{
			"buffer":0,
			"byteLength":150252,
			"byteOffset":724472,
			"target":34962
		},
		{
			"buffer":0,
			"byteLength":150252,
			"byteOffset":874724,
			"target":34962
		},
		{
			"buffer":0,
			"byteLength":100168,
			"byteOffset":1024976,
			"target":34962
		},
		{
			"buffer":0,
			"byteLength":672,
			"byteOffset":1125144,
			"target":34962
		},
		{
			"buffer":0,
			"byteLength":672,
			"byteOffset":1125816,
			"target":34962
		},
		{
			"buffer":0,
			"byteLength":448,
			"byteOffset":1126488,
			"target":34962
		},
		{
			"buffer":0,
			"byteLength":448,
			"byteOffset":1126936,
			"target":34962
		},
		{
			"buffer":0,
			"byteLength":168,
			"byteOffset":1127384,
			"target":34963
		},
		{
			"buffer":0,
			"byteLength":672,
			"byteOffset":1127552,
			"target":34962
		},
		{
			"buffer":0,
			"byteLength":672,
			"byteOffset":1128224,
			"target":34962
		},
		{
			"buffer":0,
			"byteLength":448,
			"byteOffset":1128896,
			"target":34962
		},
		{
			"buffer":0,
			"byteLength":448,
			"byteOffset":1129344,
			"target":34962
		},
		{
			"buffer":0,
			"byteLength":168,
			"byteOffset":1129792,
			"target":34963
		},
		{
			"buffer":0,
			"byteLength":672,
			"byteOffset":1129960,
			"target":34962
		},
		{
			"buffer":0,
			"byteLength":672,
			"byteOffset":1130632,
			"target":34962
		},
		{
			"buffer":0,
			"byteLength":448,
			"byteOffset":1131304,
			"target":34962
		},
		{
			"buffer":0,
			"byteLength":448,
			"byteOffset":1131752,
			"target":34962
		},
		{
			"buffer":0,
			"byteLength":168,
			"byteOffset":1132200,
			"target":34963
		},
		{
			"buffer":0,
			"byteLength":82500,
			"byteOffset":1132368,
			"target":34962
		},
		{
			"buffer":0,
			"byteLength":82500,
			"byteOffset":1214868,
			"target":34962
		},
		{
			"buffer":0,
			"byteLength":55000,
			"byteOffset":1297368,
			"target":34962
		},
		{
			"buffer":0,
			"byteLength":60216,
			"byteOffset":1352368,
			"target":34963
		},
		{
			"buffer":0,
			"byteLength":9648,
			"byteOffset":1412584,
			"target":34962
		},
		{
			"buffer":0,
			"byteLength":9648,
			"byteOffset":1422232,
			"target":34962
		},
		{
			"buffer":0,
			"byteLength":6432,
			"byteOffset":1431880,
			"target":34962
		},
		{
			"buffer":0,
			"byteLength":7332,
			"byteOffset":1438312,
			"target":34963
		},
		{
			"buffer":0,
			"byteLength":71580,
			"byteOffset":1445644,
			"target":34962
		},
		{
			"buffer":0,
			"byteLength":71580,
			"byteOffset":1517224,
			"target":34962
		},
		{
			"buffer":0,
			"byteLength":47720,
			"byteOffset":1588804,
			"target":34962
		},
		{
			"buffer":0,
			"byteLength":53904,
			"byteOffset":1636524,
			"target":34963
		},
		{
			"buffer":0,
			"byteLength":71580,
			"byteOffset":1690428,
			"target":34962
		},
		{
			"buffer":0,
			"byteLength":71580,
			"byteOffset":1762008,
			"target":34962
		},
		{
			"buffer":0,
			"byteLength":47720,
			"byteOffset":1833588,
			"target":34962
		}
	],
	"samplers":[
		{
			"magFilter":9729,
			"minFilter":9987
		}
	],
	"buffers":[
		{
			"byteLength":1881308,
			"uri":"FULL-ROOM_23-10.bin"
		}
	]
}
