{
	"asset":{
		"generator":"Khronos glTF Blender I/O v4.2.57",
		"version":"2.0"
	},
	"extensionsUsed":[
		"KHR_materials_specular"
	],
	"scene":0,
	"scenes":[
		{
			"name":"Scene",
			"nodes":[
				0,
				1
			]
		}
	],
	"nodes":[
		{
			"mesh":0,
			"name":"Cube.003",
			"scale":[
				2.4088070392608643,
				1,
				1.5482399463653564
			],
			"translation":[
				0,
				2.4010512828826904,
				0
			]
		},
		{
			"mesh":1,
			"name":"Sofa020_001_Sofa020_0",
			"scale":[
				0.0026232521049678326,
				0.0026232521049678326,
				0.0026232521049678326
			],
			"translation":[
				-1.0325428247451782,
				1.5402976274490356,
				-0.7495496273040771
			]
		}
	],
	"materials":[
		{
			"doubleSided":true,
			"name":"Stucco wall",
			"normalTexture":{
				"index":0,
				"texCoord":1
			},
			"pbrMetallicRoughness":{
				"baseColorTexture":{
					"index":1,
					"texCoord":1
				},
				"metallicFactor":0,
				"metallicRoughnessTexture":{
					"index":2,
					"texCoord":1
				}
			}
		},
		{
			"doubleSided":true,
			"extensions":{
				"KHR_materials_specular":{
					"specularColorTexture":{
						"index":3
					}
				}
			},
			"name":"Sofa020",
			"normalTexture":{
				"index":4
			},
			"pbrMetallicRoughness":{
				"baseColorTexture":{
					"index":5
				},
				"metallicFactor":0,
				"roughnessFactor":0.5
			}
		}
	],
	"meshes":[
		{
			"name":"Cube.005",
			"primitives":[
				{
					"attributes":{
						"POSITION":0,
						"NORMAL":1,
						"TEXCOORD_0":2,
						"TEXCOORD_1":3
					},
					"indices":4,
					"material":0
				}
			]
		},
		{
			"name":"Sofa020_001_Sofa020_0",
			"primitives":[
				{
					"attributes":{
						"POSITION":5,
						"NORMAL":6,
						"TEXCOORD_0":7
					},
					"indices":8,
					"material":1
				}
			]
		}
	],
	"textures":[
		{
			"sampler":0,
			"source":0
		},
		{
			"sampler":0,
			"source":1
		},
		{
			"sampler":0,
			"source":2
		},
		{
			"sampler":0,
			"source":3
		},
		{
			"sampler":0,
			"source":4
		},
		{
			"sampler":0,
			"source":5
		}
	],
	"images":[
		{
			"mimeType":"image/jpeg",
			"name":"wall02_normal",
			"uri":"wall02_normal.jpg"
		},
		{
			"mimeType":"image/jpeg",
			"name":"wall02_diffuse",
			"uri":"wall02_diffuse.jpg"
		},
		{
			"mimeType":"image/png",
			"name":"wall02_glossiness",
			"uri":"wall02_glossiness.png"
		},
		{
			"mimeType":"image/jpeg",
			"name":"Sofa020_specularGlossiness_spec",
			"uri":"Sofa020_specularGlossiness_spec.jpg"
		},
		{
			"mimeType":"image/jpeg",
			"name":"Sofa020_normal",
			"uri":"Sofa020_normal.jpg"
		},
		{
			"mimeType":"image/jpeg",
			"name":"Sofa020_diffuse",
			"uri":"Sofa020_diffuse.jpg"
		}
	],
	"accessors":[
		{
			"bufferView":0,
			"componentType":5126,
			"count":56,
			"max":[
				-0.037119824439287186,
				-0.40287983417510986,
				-0.05806761980056763
			],
			"min":[
				-0.8925631046295166,
				-0.8925631046295166,
				-0.8925631046295166
			],
			"type":"VEC3"
		},
		{
			"bufferView":1,
			"componentType":5126,
			"count":56,
			"type":"VEC3"
		},
		{
			"bufferView":2,
			"componentType":5126,
			"count":56,
			"type":"VEC2"
		},
		{
			"bufferView":3,
			"componentType":5126,
			"count":56,
			"type":"VEC2"
		},
		{
			"bufferView":4,
			"componentType":5123,
			"count":84,
			"type":"SCALAR"
		},
		{
			"bufferView":5,
			"componentType":5126,
			"count":804,
			"max":[
				81.2890625,
				135.63226318359375,
				65.86792755126953
			],
			"min":[
				-81.28905487060547,
				-2.14615535736084,
				-66.25228118896484
			],
			"type":"VEC3"
		},
		{
			"bufferView":6,
			"componentType":5126,
			"count":804,
			"type":"VEC3"
		},
		{
			"bufferView":7,
			"componentType":5126,
			"count":804,
			"type":"VEC2"
		},
		{
			"bufferView":8,
			"componentType":5123,
			"count":3666,
			"type":"SCALAR"
		}
	],
	"bufferViews":[
		{
			"buffer":0,
			"byteLength":672,
			"byteOffset":0,
			"target":34962
		},
		{
			"buffer":0,
			"byteLength":672,
			"byteOffset":672,
			"target":34962
		},
		{
			"buffer":0,
			"byteLength":448,
			"byteOffset":1344,
			"target":34962
		},
		{
			"buffer":0,
			"byteLength":448,
			"byteOffset":1792,
			"target":34962
		},
		{
			"buffer":0,
			"byteLength":168,
			"byteOffset":2240,
			"target":34963
		},
		{
			"buffer":0,
			"byteLength":9648,
			"byteOffset":2408,
			"target":34962
		},
		{
			"buffer":0,
			"byteLength":9648,
			"byteOffset":12056,
			"target":34962
		},
		{
			"buffer":0,
			"byteLength":6432,
			"byteOffset":21704,
			"target":34962
		},
		{
			"buffer":0,
			"byteLength":7332,
			"byteOffset":28136,
			"target":34963
		}
	],
	"samplers":[
		{
			"magFilter":9729,
			"minFilter":9987
		}
	],
	"buffers":[
		{
			"byteLength":35468,
			"uri":"FULL-ROOM_HALL_ROOM_23-10.bin"
		}
	]
}
