{
	"asset":{
		"generator":"Khronos glTF Blender I/O v4.2.57",
		"version":"2.0"
	},
	"extensionsUsed":[
		"KHR_materials_specular"
	],
	"scene":0,
	"scenes":[
		{
			"name":"Scene",
			"nodes":[
				0,
				1
			]
		}
	],
	"nodes":[
		{
			"mesh":0,
			"name":"Cube.004",
			"scale":[
				2.4088070392608643,
				1,
				1.5482399463653564
			],
			"translation":[
				0,
				2.4010512828826904,
				0
			]
		},
		{
			"mesh":1,
			"name":"Object_0",
			"scale":[
				0.00435180077329278,
				0.0043518017046153545,
				0.0043518017046153545
			],
			"translation":[
				-1.0924396514892578,
				1.5323234796524048,
				0.7142874002456665
			]
		}
	],
	"materials":[
		{
			"doubleSided":true,
			"name":"Brick wall",
			"normalTexture":{
				"index":0,
				"texCoord":1
			},
			"pbrMetallicRoughness":{
				"baseColorTexture":{
					"index":1,
					"texCoord":1
				},
				"metallicRoughnessTexture":{
					"index":2,
					"texCoord":1
				}
			}
		},
		{
			"doubleSided":true,
			"extensions":{
				"KHR_materials_specular":{
					"specularColorTexture":{
						"index":3
					}
				}
			},
			"name":"material",
			"normalTexture":{
				"index":4
			},
			"pbrMetallicRoughness":{
				"baseColorTexture":{
					"index":5
				},
				"metallicFactor":0,
				"roughnessFactor":0.5
			}
		}
	],
	"meshes":[
		{
			"name":"Cube.006",
			"primitives":[
				{
					"attributes":{
						"POSITION":0,
						"NORMAL":1,
						"TEXCOORD_0":2,
						"TEXCOORD_1":3
					},
					"indices":4,
					"material":0
				}
			]
		},
		{
			"name":"Object_0",
			"primitives":[
				{
					"attributes":{
						"POSITION":5,
						"NORMAL":6,
						"TEXCOORD_0":7
					},
					"indices":8,
					"material":1
				}
			]
		}
	],
	"textures":[
		{
			"sampler":0,
			"source":0
		},
		{
			"sampler":0,
			"source":1
		},
		{
			"sampler":0,
			"source":2
		},
		{
			"sampler":0,
			"source":3
		},
		{
			"sampler":0,
			"source":4
		},
		{
			"sampler":0,
			"source":5
		}
	],
	"images":[
		{
			"mimeType":"image/jpeg",
			"name":"Brick_Normal",
			"uri":"Brick_Normal.jpg"
		},
		{
			"mimeType":"image/jpeg",
			"name":"Brick_BaseColor",
			"uri":"Brick_BaseColor.jpg"
		},
		{
			"mimeType":"image/jpeg",
			"name":"Brick_OcclusionRoughnessMetallic",
			"uri":"Brick_OcclusionRoughnessMetallic.jpg"
		},
		{
			"mimeType":"image/jpeg",
			"name":"material_specularGlossiness_spec",
			"uri":"material_specularGlossiness_spec.jpg"
		},
		{
			"mimeType":"image/jpeg",
			"name":"material_normal",
			"uri":"material_normal.jpg"
		},
		{
			"mimeType":"image/jpeg",
			"name":"material_diffuse",
			"uri":"material_diffuse.jpg"
		}
	],
	"accessors":[
		{
			"bufferView":0,
			"componentType":5126,
			"count":56,
			"max":[
				-0.037119824439287186,
				-0.40287619829177856,
				0.8925631046295166
			],
			"min":[
				-0.8925631046295166,
				-0.8925631046295166,
				0.05512889847159386
			],
			"type":"VEC3"
		},
		{
			"bufferView":1,
			"componentType":5126,
			"count":56,
			"type":"VEC3"
		},
		{
			"bufferView":2,
			"componentType":5126,
			"count":56,
			"type":"VEC2"
		},
		{
			"bufferView":3,
			"componentType":5126,
			"count":56,
			"type":"VEC2"
		},
		{
			"bufferView":4,
			"componentType":5123,
			"count":84,
			"type":"SCALAR"
		},
		{
			"bufferView":5,
			"componentType":5126,
			"count":6875,
			"max":[
				69.10060119628906,
				70.71710205078125,
				36.77130126953125
			],
			"min":[
				-68.72660064697266,
				0,
				-39.177101135253906
			],
			"type":"VEC3"
		},
		{
			"bufferView":6,
			"componentType":5126,
			"count":6875,
			"type":"VEC3"
		},
		{
			"bufferView":7,
			"componentType":5126,
			"count":6875,
			"type":"VEC2"
		},
		{
			"bufferView":8,
			"componentType":5123,
			"count":30108,
			"type":"SCALAR"
		}
	],
	"bufferViews":[
		{
			"buffer":0,
			"byteLength":672,
			"byteOffset":0,
			"target":34962
		},
		{
			"buffer":0,
			"byteLength":672,
			"byteOffset":672,
			"target":34962
		},
		{
			"buffer":0,
			"byteLength":448,
			"byteOffset":1344,
			"target":34962
		},
		{
			"buffer":0,
			"byteLength":448,
			"byteOffset":1792,
			"target":34962
		},
		{
			"buffer":0,
			"byteLength":168,
			"byteOffset":2240,
			"target":34963
		},
		{
			"buffer":0,
			"byteLength":82500,
			"byteOffset":2408,
			"target":34962
		},
		{
			"buffer":0,
			"byteLength":82500,
			"byteOffset":84908,
			"target":34962
		},
		{
			"buffer":0,
			"byteLength":55000,
			"byteOffset":167408,
			"target":34962
		},
		{
			"buffer":0,
			"byteLength":60216,
			"byteOffset":222408,
			"target":34963
		}
	],
	"samplers":[
		{
			"magFilter":9729,
			"minFilter":9987
		}
	],
	"buffers":[
		{
			"byteLength":282624,
			"uri":"FULL-ROOM_1BED_ROOM_23-10.bin"
		}
	]
}
