{
	"asset":{
		"generator":"Khronos glTF Blender I/O v4.2.57",
		"version":"2.0"
	},
	"scene":0,
	"scenes":[
		{
			"name":"Scene",
			"nodes":[
				0,
				1,
				2
			]
		}
	],
	"nodes":[
		{
			"mesh":0,
			"name":"Cube.002",
			"scale":[
				2.4088070392608643,
				1,
				1.5482399463653564
			],
			"translation":[
				0,
				2.4010512828826904,
				0
			]
		},
		{
			"mesh":1,
			"name":"WoodenBucket_WoodenBucket_0",
			"scale":[
				0.020127292722463608,
				0.020127294585108757,
				0.020127294585108757
			],
			"translation":[
				0.6777251958847046,
				1.5294322967529297,
				0.7555927038192749
			]
		},
		{
			"mesh":2,
			"name":"WoodenBucket_WoodenBucket_0.001",
			"scale":[
				0.020127292722463608,
				0.020127294585108757,
				0.020127294585108757
			],
			"translation":[
				1.4576245546340942,
				1.5294322967529297,
				0.7555927038192749
			]
		}
	],
	"materials":[
		{
			"doubleSided":true,
			"name":"Damaged wall",
			"normalTexture":{
				"index":0,
				"texCoord":1
			},
			"pbrMetallicRoughness":{
				"baseColorTexture":{
					"index":1,
					"texCoord":1
				},
				"metallicFactor":0,
				"metallicRoughnessTexture":{
					"index":2,
					"texCoord":1
				}
			}
		},
		{
			"doubleSided":true,
			"name":"WoodenBucket",
			"normalTexture":{
				"index":3
			},
			"pbrMetallicRoughness":{
				"baseColorTexture":{
					"index":4
				},
				"metallicRoughnessTexture":{
					"index":5
				}
			}
		}
	],
	"meshes":[
		{
			"name":"Cube.004",
			"primitives":[
				{
					"attributes":{
						"POSITION":0,
						"NORMAL":1,
						"TEXCOORD_0":2,
						"TEXCOORD_1":3
					},
					"indices":4,
					"material":0
				}
			]
		},
		{
			"name":"WoodenBucket_WoodenBucket_0",
			"primitives":[
				{
					"attributes":{
						"POSITION":5,
						"NORMAL":6,
						"TEXCOORD_0":7
					},
					"indices":8,
					"material":1
				}
			]
		},
		{
			"name":"WoodenBucket_WoodenBucket_0.001",
			"primitives":[
				{
					"attributes":{
						"POSITION":9,
						"NORMAL":10,
						"TEXCOORD_0":11
					},
					"indices":8,
					"material":1
				}
			]
		}
	],
	"textures":[
		{
			"sampler":0,
			"source":0
		},
		{
			"sampler":0,
			"source":1
		},
		{
			"sampler":0,
			"source":2
		},
		{
			"sampler":0,
			"source":3
		},
		{
			"sampler":0,
			"source":4
		},
		{
			"sampler":0,
			"source":5
		}
	],
	"images":[
		{
			"mimeType":"image/jpeg",
			"name":"wall_normal",
			"uri":"wall_normal.jpg"
		},
		{
			"mimeType":"image/jpeg",
			"name":"wall_diffuse",
			"uri":"wall_diffuse.jpg"
		},
		{
			"mimeType":"image/png",
			"name":"wall_glossiness",
			"uri":"wall_glossiness.png"
		},
		{
			"mimeType":"image/jpeg",
			"name":"WoodenBucket_normal",
			"uri":"WoodenBucket_normal.jpg"
		},
		{
			"mimeType":"image/jpeg",
			"name":"WoodenBucket_baseColor",
			"uri":"WoodenBucket_baseColor.jpg"
		},
		{
			"mimeType":"image/png",
			"name":"WoodenBucket_metallicRoughness_metal_scale0-WoodenBucket_metallicRoughness_rough",
			"uri":"WoodenBucket_metallicRoughness_metal_scale0-WoodenBucket_metallicRoughness_rough.png"
		}
	],
	"accessors":[
		{
			"bufferView":0,
			"componentType":5126,
			"count":56,
			"max":[
				0.8925631046295166,
				-0.39845138788223267,
				0.8925631046295166
			],
			"min":[
				0.03556448221206665,
				-0.8925631046295166,
				0.05512889847159386
			],
			"type":"VEC3"
		},
		{
			"bufferView":1,
			"componentType":5126,
			"count":56,
			"type":"VEC3"
		},
		{
			"bufferView":2,
			"componentType":5126,
			"count":56,
			"type":"VEC2"
		},
		{
			"bufferView":3,
			"componentType":5126,
			"count":56,
			"type":"VEC2"
		},
		{
			"bufferView":4,
			"componentType":5123,
			"count":84,
			"type":"SCALAR"
		},
		{
			"bufferView":5,
			"componentType":5126,
			"count":5965,
			"max":[
				6.9834747314453125,
				16.37657356262207,
				7.782039165496826
			],
			"min":[
				-6.9834747314453125,
				-9.217850310960785e-05,
				-7.852421760559082
			],
			"type":"VEC3"
		},
		{
			"bufferView":6,
			"componentType":5126,
			"count":5965,
			"type":"VEC3"
		},
		{
			"bufferView":7,
			"componentType":5126,
			"count":5965,
			"type":"VEC2"
		},
		{
			"bufferView":8,
			"componentType":5123,
			"count":26952,
			"type":"SCALAR"
		},
		{
			"bufferView":9,
			"componentType":5126,
			"count":5965,
			"max":[
				6.9834747314453125,
				16.37657356262207,
				7.782039165496826
			],
			"min":[
				-6.9834747314453125,
				-9.217850310960785e-05,
				-7.852421760559082
			],
			"type":"VEC3"
		},
		{
			"bufferView":10,
			"componentType":5126,
			"count":5965,
			"type":"VEC3"
		},
		{
			"bufferView":11,
			"componentType":5126,
			"count":5965,
			"type":"VEC2"
		}
	],
	"bufferViews":[
		{
			"buffer":0,
			"byteLength":672,
			"byteOffset":0,
			"target":34962
		},
		{
			"buffer":0,
			"byteLength":672,
			"byteOffset":672,
			"target":34962
		},
		{
			"buffer":0,
			"byteLength":448,
			"byteOffset":1344,
			"target":34962
		},
		{
			"buffer":0,
			"byteLength":448,
			"byteOffset":1792,
			"target":34962
		},
		{
			"buffer":0,
			"byteLength":168,
			"byteOffset":2240,
			"target":34963
		},
		{
			"buffer":0,
			"byteLength":71580,
			"byteOffset":2408,
			"target":34962
		},
		{
			"buffer":0,
			"byteLength":71580,
			"byteOffset":73988,
			"target":34962
		},
		{
			"buffer":0,
			"byteLength":47720,
			"byteOffset":145568,
			"target":34962
		},
		{
			"buffer":0,
			"byteLength":53904,
			"byteOffset":193288,
			"target":34963
		},
		{
			"buffer":0,
			"byteLength":71580,
			"byteOffset":247192,
			"target":34962
		},
		{
			"buffer":0,
			"byteLength":71580,
			"byteOffset":318772,
			"target":34962
		},
		{
			"buffer":0,
			"byteLength":47720,
			"byteOffset":390352,
			"target":34962
		}
	],
	"samplers":[
		{
			"magFilter":9729,
			"minFilter":9987
		}
	],
	"buffers":[
		{
			"byteLength":438072,
			"uri":"FULL-ROOM_BATH-ROOM_23-10.bin"
		}
	]
}
